{
    "asset" : {
        "generator" : "Khronos glTF Blender I/O v3.2.40",
        "version" : "2.0"
    },
    "scene" : 0,
    "scenes" : [
        {
            "name" : "Scene",
            "nodes" : [
                0,
                1,
                2,
                3,
                4,
                5
            ]
        }
    ],
    "nodes" : [
        {
            "mesh" : 0,
            "name" : "Cubo.001",
            "rotation" : [
                -0.2708043158054352,
                -0.10791907459497452,
                -0.030567554756999016,
                0.9560774564743042
            ],
            "scale" : [
                0.14509236812591553,
                0.14414571225643158,
                0.05767299234867096
            ],
            "translation" : [
                0.5869358777999878,
                4.171454906463623,
                1.5184659957885742
            ]
        },
        {
            "mesh" : 1,
            "name" : "Cubo.002",
            "rotation" : [
                -0.2714478373527527,
                0.08542133867740631,
                0.024195177480578423,
                0.9583495259284973
            ],
            "scale" : [
                0.14509236812591553,
                0.14414571225643158,
                0.05767299234867096
            ],
            "translation" : [
                1.4189900159835815,
                4.165782451629639,
                1.5147931575775146
            ]
        },
        {
            "mesh" : 2,
            "name" : "Cubo.006",
            "rotation" : [
                -0.0019029485993087292,
                -0.03777831047773361,
                0.05027167871594429,
                0.9980190396308899
            ],
            "scale" : [
                0.27919092774391174,
                0.8926190137863159,
                0.8920604586601257
            ],
            "translation" : [
                1.0938827991485596,
                3.255448818206787,
                0
            ]
        },
        {
            "mesh" : 3,
            "name" : "Cubo.003",
            "rotation" : [
                -0.011686041951179504,
                -0.2319972813129425,
                0.04893157631158829,
                0.9714146256446838
            ],
            "scale" : [
                0.27919092774391174,
                0.8926190137863159,
                0.8920604586601257
            ],
            "translation" : [
                1.0938827991485596,
                3.300737142562866,
                0
            ]
        },
        {
            "mesh" : 4,
            "name" : "Cubo.004",
            "rotation" : [
                -0.9937926530838013,
                0.05005878582596779,
                -0.09922384470701218,
                0.004998046439141035
            ],
            "scale" : [
                -0.27919095754623413,
                -0.8926190137863159,
                -0.8920604586601257
            ],
            "translation" : [
                0.5186764001846313,
                3.2881672382354736,
                0.16142702102661133
            ]
        },
        {
            "mesh" : 5,
            "name" : "Cubo.005",
            "rotation" : [
                -0.12144878506660461,
                -0.10197695344686508,
                -0.04670760780572891,
                0.9862399697303772
            ],
            "scale" : [
                0.14509236812591553,
                0.14414569735527039,
                0.05767299234867096
            ],
            "translation" : [
                0.9832090139389038,
                3.5034518241882324,
                1.788988471031189
            ]
        }
    ],
    "materials" : [
        {
            "doubleSided" : true,
            "name" : "Material",
            "pbrMetallicRoughness" : {
                "baseColorFactor" : [
                    0.013410375453531742,
                    0.013410375453531742,
                    0.013410375453531742,
                    1
                ],
                "metallicFactor" : 0,
                "roughnessFactor" : 0.5869565010070801
            }
        },
        {
            "doubleSided" : true,
            "name" : "body",
            "pbrMetallicRoughness" : {
                "baseColorFactor" : [
                    0.9734454154968262,
                    0.4286904036998749,
                    0.0021247193217277527,
                    1
                ],
                "metallicFactor" : 0,
                "roughnessFactor" : 0.4434784948825836
            }
        }
    ],
    "meshes" : [
        {
            "name" : "Cubo.001",
            "primitives" : [
                {
                    "attributes" : {
                        "POSITION" : 0,
                        "NORMAL" : 1,
                        "TEXCOORD_0" : 2
                    },
                    "indices" : 3,
                    "material" : 0
                }
            ]
        },
        {
            "name" : "Cubo.002",
            "primitives" : [
                {
                    "attributes" : {
                        "POSITION" : 4,
                        "NORMAL" : 5,
                        "TEXCOORD_0" : 6
                    },
                    "indices" : 3,
                    "material" : 0
                }
            ]
        },
        {
            "name" : "Cubo.006",
            "primitives" : [
                {
                    "attributes" : {
                        "POSITION" : 7,
                        "NORMAL" : 8,
                        "TEXCOORD_0" : 9
                    },
                    "indices" : 10,
                    "material" : 1
                }
            ]
        },
        {
            "name" : "Cubo.003",
            "primitives" : [
                {
                    "attributes" : {
                        "POSITION" : 11,
                        "NORMAL" : 12,
                        "TEXCOORD_0" : 13
                    },
                    "indices" : 14,
                    "material" : 1
                }
            ]
        },
        {
            "name" : "Cubo.004",
            "primitives" : [
                {
                    "attributes" : {
                        "POSITION" : 15,
                        "NORMAL" : 16,
                        "TEXCOORD_0" : 17
                    },
                    "indices" : 14,
                    "material" : 1
                }
            ]
        },
        {
            "name" : "Cubo.005",
            "primitives" : [
                {
                    "attributes" : {
                        "POSITION" : 18,
                        "NORMAL" : 19,
                        "TEXCOORD_0" : 20
                    },
                    "indices" : 3,
                    "material" : 0
                }
            ]
        }
    ],
    "accessors" : [
        {
            "bufferView" : 0,
            "componentType" : 5126,
            "count" : 14,
            "max" : [
                1,
                1,
                1
            ],
            "min" : [
                -1,
                -1,
                -1
            ],
            "type" : "VEC3"
        },
        {
            "bufferView" : 1,
            "componentType" : 5126,
            "count" : 14,
            "type" : "VEC3"
        },
        {
            "bufferView" : 2,
            "componentType" : 5126,
            "count" : 14,
            "type" : "VEC2"
        },
        {
            "bufferView" : 3,
            "componentType" : 5123,
            "count" : 36,
            "type" : "SCALAR"
        },
        {
            "bufferView" : 4,
            "componentType" : 5126,
            "count" : 14,
            "max" : [
                1,
                1,
                1
            ],
            "min" : [
                -1,
                -1,
                -1
            ],
            "type" : "VEC3"
        },
        {
            "bufferView" : 5,
            "componentType" : 5126,
            "count" : 14,
            "type" : "VEC3"
        },
        {
            "bufferView" : 6,
            "componentType" : 5126,
            "count" : 14,
            "type" : "VEC2"
        },
        {
            "bufferView" : 7,
            "componentType" : 5126,
            "count" : 6370,
            "max" : [
                7.243749141693115,
                1.9059046506881714,
                2.1032185554504395
            ],
            "min" : [
                -7.918048858642578,
                -2.2993297576904297,
                -2.1032185554504395
            ],
            "type" : "VEC3"
        },
        {
            "bufferView" : 8,
            "componentType" : 5126,
            "count" : 6370,
            "type" : "VEC3"
        },
        {
            "bufferView" : 9,
            "componentType" : 5126,
            "count" : 6370,
            "type" : "VEC2"
        },
        {
            "bufferView" : 10,
            "componentType" : 5123,
            "count" : 36660,
            "type" : "SCALAR"
        },
        {
            "bufferView" : 11,
            "componentType" : 5126,
            "count" : 38,
            "max" : [
                2.7880516052246094,
                -1.7798949480056763,
                1.0231544971466064
            ],
            "min" : [
                -1.1790286302566528,
                -3.846010446548462,
                -0.6274888515472412
            ],
            "type" : "VEC3"
        },
        {
            "bufferView" : 12,
            "componentType" : 5126,
            "count" : 38,
            "type" : "VEC3"
        },
        {
            "bufferView" : 13,
            "componentType" : 5126,
            "count" : 38,
            "type" : "VEC2"
        },
        {
            "bufferView" : 14,
            "componentType" : 5123,
            "count" : 156,
            "type" : "SCALAR"
        },
        {
            "bufferView" : 15,
            "componentType" : 5126,
            "count" : 38,
            "max" : [
                1.3432704210281372,
                -1.734254002571106,
                1.1436315774917603
            ],
            "min" : [
                -2.623809814453125,
                -3.8003695011138916,
                -0.5070118308067322
            ],
            "type" : "VEC3"
        },
        {
            "bufferView" : 16,
            "componentType" : 5126,
            "count" : 38,
            "type" : "VEC3"
        },
        {
            "bufferView" : 17,
            "componentType" : 5126,
            "count" : 38,
            "type" : "VEC2"
        },
        {
            "bufferView" : 18,
            "componentType" : 5126,
            "count" : 14,
            "max" : [
                1,
                1,
                1
            ],
            "min" : [
                -1,
                -1,
                -1
            ],
            "type" : "VEC3"
        },
        {
            "bufferView" : 19,
            "componentType" : 5126,
            "count" : 14,
            "type" : "VEC3"
        },
        {
            "bufferView" : 20,
            "componentType" : 5126,
            "count" : 14,
            "type" : "VEC2"
        }
    ],
    "bufferViews" : [
        {
            "buffer" : 0,
            "byteLength" : 168,
            "byteOffset" : 0
        },
        {
            "buffer" : 0,
            "byteLength" : 168,
            "byteOffset" : 168
        },
        {
            "buffer" : 0,
            "byteLength" : 112,
            "byteOffset" : 336
        },
        {
            "buffer" : 0,
            "byteLength" : 72,
            "byteOffset" : 448
        },
        {
            "buffer" : 0,
            "byteLength" : 168,
            "byteOffset" : 520
        },
        {
            "buffer" : 0,
            "byteLength" : 168,
            "byteOffset" : 688
        },
        {
            "buffer" : 0,
            "byteLength" : 112,
            "byteOffset" : 856
        },
        {
            "buffer" : 0,
            "byteLength" : 76440,
            "byteOffset" : 968
        },
        {
            "buffer" : 0,
            "byteLength" : 76440,
            "byteOffset" : 77408
        },
        {
            "buffer" : 0,
            "byteLength" : 50960,
            "byteOffset" : 153848
        },
        {
            "buffer" : 0,
            "byteLength" : 73320,
            "byteOffset" : 204808
        },
        {
            "buffer" : 0,
            "byteLength" : 456,
            "byteOffset" : 278128
        },
        {
            "buffer" : 0,
            "byteLength" : 456,
            "byteOffset" : 278584
        },
        {
            "buffer" : 0,
            "byteLength" : 304,
            "byteOffset" : 279040
        },
        {
            "buffer" : 0,
            "byteLength" : 312,
            "byteOffset" : 279344
        },
        {
            "buffer" : 0,
            "byteLength" : 456,
            "byteOffset" : 279656
        },
        {
            "buffer" : 0,
            "byteLength" : 456,
            "byteOffset" : 280112
        },
        {
            "buffer" : 0,
            "byteLength" : 304,
            "byteOffset" : 280568
        },
        {
            "buffer" : 0,
            "byteLength" : 168,
            "byteOffset" : 280872
        },
        {
            "buffer" : 0,
            "byteLength" : 168,
            "byteOffset" : 281040
        },
        {
            "buffer" : 0,
            "byteLength" : 112,
            "byteOffset" : 281208
        }
    ],
    "buffers" : [
        {
            "byteLength" : 281320,
            "uri" : "data:application/octet-stream;base64,"
        }
    ]
}
